# xmcd CD database file
#
# Track frame offsets:
#	152
#	27475
#	43837
#	76105
#	91482
#	115660
#	142827
#	162355
#	200570
#
# Disc length: 3031 seconds
#
# Revision: 0
# Processed by: cddbd v1.4PL0 Copyright (c) Steve Scherf et al.
# Submitted via: CDex 1.50
#
DISCID=6f0bd509
DTITLE=Philip Tabane - Ke A Bereka
DYEAR=1996
DGENRE=Jazz
TTITLE0=Ke A Bereka
TTITLE1=Bokgarebe
TTITLE2=Dithaka
TTITLE3=Lenyora
TTITLE4=Kika
TTITLE5=Thabang
TTITLE6=Ba Nyaka Ke Wele
TTITLE7=Dithabeng
TTITLE8=Badimo
EXTD=YEAR: 1996
EXTT0=
EXTT1=
EXTT2=
EXTT3=
EXTT4=
EXTT5=
EXTT6=
EXTT7=
EXTT8=
PLAYORDER=
